# xmcd
#
# Track frame offsets: 
#        150
#        16312
#        30280
#        52392
#        65021
#        78805
#        99613
#        111168
#        118907
#        135194
#        157890
#        185336
#        196136
#        212635
#        234730
#        249748
#        271853
#        291446
#        305753
#        340547
#
# Disc length: 4731 seconds
#
# Revision: 0
# Processed by: cddbd v1.5.1PL0 Copyright (c) Steve Scherf et al.
# Submitted via: ExactAudioCopy v0.95a4
#
DISCID=1b127914
DTITLE=Savoy Brown - Shake Down and Raw Sienna
DYEAR=2004
DGENRE=Rock
TTITLE0=Ain't Superstitious
TTITLE1=Let Me Love You Baby
TTITLE2=Black Night
TTITLE3=High Rise
TTITLE4=Rock Me Baby
TTITLE5=I Smell Trouble
TTITLE6=Pretty Woman
TTITLE7=Little Girl
TTITLE8=The Doormouse Rides The Rail
TTITLE9=It's All My Fault
TTITLE10=Shake 'Em On Down
TTITLE11=A Hard Way To Go
TTITLE12=That Same Feelin'
TTITLE13=Master Hare
TTITLE14=Needle And Spoon
TTITLE15=A Little More Wine
TTITLE16=I'm Crying
TTITLE17=Stay While The Night Is Young
TTITLE18=Is That So
TTITLE19=When I Was A Young Boy
EXTD=
EXTT0=
EXTT1=
EXTT2=
EXTT3=
EXTT4=
EXTT5=
EXTT6=
EXTT7=
EXTT8=
EXTT9=
EXTT10=
EXTT11=
EXTT12=
EXTT13=
EXTT14=
EXTT15=
EXTT16=
EXTT17=
EXTT18=
EXTT19=
PLAYORDER=
